<?xml version="1.0" encoding="utf-8"?>
<svg width="210mm" height="297mm" viewBox="0 0 210 297" version="1.1" id="svg1" xmlns="http://www.w3.org/2000/svg" xmlns:bx="https://boxy-svg.com">
  <defs id="defs1">
    <rect x="483" y="879" width="253" height="90.999998" id="rect4"/>
    <rect x="54" y="879" width="250" height="186" id="rect3"/>
    <linearGradient id="swatch1">
      <stop style="stop-color:#000000;stop-opacity:1;" offset="0" id="stop1"/>
    </linearGradient>
    <linearGradient id="linearGradient1" x1="0.96102834" y1="152.71682" x2="212.1028" y2="152.71682" gradientUnits="userSpaceOnUse" gradientTransform="matrix(0.97525957,0,0,0.9618526,1.0960602,1.608868)" href="#swatch1"/>
    <bx:export>
      <bx:file format="svg" href="#rect1" units="mm"/>
      <bx:file format="svg" href="#layer1" path="Untitled 2.svg" units="mm"/>
      <bx:file format="svg" href="#object-0" path="Untitled 3.svg" units="mm"/>
      <bx:file format="svg" href="#object-1" path="Untitled 4.svg" units="mm"/>
      <bx:file format="svg" href="#object-2" path="Untitled 5.svg" units="mm"/>
      <bx:file format="svg" href="#object-3" path="Untitled 6.svg" units="mm"/>
      <bx:file format="svg" href="#object-4" path="Untitled 7.svg" units="mm"/>
      <bx:file format="svg" href="#object-5" path="Untitled 8.svg" units="mm"/>
    </bx:export>
  </defs>
  <g id="layer1">
    <path id="rect1" style="fill:#6ba863;fill-opacity:1;stroke:url(#linearGradient1);stroke-width:3.06543;stroke-linejoin:round;stroke-dasharray:none;stroke-linecap:round;paint-order:markers fill stroke" d="m 1.517021,2.0653731 c 0,97.6229049 0,195.2461469 0,292.8691469 0.3453604,0.60847 0.9772117,0.53487 1.5889866,0.5091 68.2819724,0 136.5640524,0 204.8459524,0 0.61697,-0.34061 0.54232,-0.96383 0.51612,-1.56719 0,-97.27044 0,-194.540753 0,-291.8110569 -0.34532,-0.6085296 -0.97709,-0.5349162 -1.58884,-0.5091058 -68.28198,0 -136.564047,0 -204.8460174,0 C 1.8611556,1.7259687 1.6890887,1.8956714 1.517021,2.0653731 Z"/>
    <text style="font-size: 19.7556px; fill: rgb(107, 168, 99); fill-opacity: 1; stroke-width: 3.165; stroke-linecap: round; stroke-linejoin: round; stroke-dasharray: none; paint-order: markers; font-family: Verdana; font-weight: normal; font-style: normal; font-stretch: normal; font-variant: normal; white-space: pre;" x="48.830139" y="36.856468" id="text1"><tspan id="tspan1" style="font-size:19.7556px;fill:#000000;stroke-width:3.165;-inkscape-font-specification:Verdana;font-family:Verdana;font-weight:normal;font-style:normal;font-stretch:normal;font-variant:normal" x="48.830139" y="36.856468">DEAKDUST</tspan></text>
    <text style="font-size: 19.7556px; fill: rgb(0, 0, 0); fill-opacity: 1; stroke-width: 3.165; stroke-linecap: round; stroke-linejoin: round; stroke-dasharray: none; paint-order: markers; white-space: pre;" x="103.83421" y="53.881538" id="text2"><tspan id="tspan2" style="font-style:normal;font-variant:normal;font-weight:normal;font-stretch:normal;font-size:19.7556px;font-family:Verdana;-inkscape-font-specification:Verdana;stroke-width:3.165" x="103.83421" y="53.881538">CHALK</tspan></text>
    <text transform="matrix(0.26458333,0,0,0.26458333,-6.0854166,26.536652)" id="text3" style="font-size:74.6667px;white-space:pre;shape-inside:url(#rect3);display:inline;fill:#000000;fill-opacity:1;stroke-width:11.9622;stroke-linecap:round;stroke-linejoin:round;stroke-dasharray:none;paint-order:markers fill stroke"><tspan x="54" y="947.1207" id="tspan929"><tspan style="font-family:Verdana;-inkscape-font-specification:Verdana" id="tspan927">200g</tspan></tspan></text>
    <text transform="matrix(0.26458333,0,0,0.26458333,8.73125,26.536652)" id="text4" style="font-style:normal;font-variant:normal;font-weight:normal;font-stretch:normal;font-size:74.6667px;font-family:sans-serif;-inkscape-font-specification:sans-serif;white-space:pre;shape-inside:url(#rect4);display:inline;fill:#000000;fill-opacity:1;stroke-width:11.9622;stroke-linecap:round;stroke-linejoin:round;stroke-dasharray:none;paint-order:markers fill stroke"><tspan x="483" y="947.1207" id="tspan935"><tspan style="font-family:Verdana;-inkscape-font-specification:Verdana" id="tspan931">MgCO</tspan><tspan style="font-size:37.3333px;font-family:Verdana;-inkscape-font-specification:Verdana;baseline-shift:sub" id="tspan933">3</tspan></tspan></text>
  </g>
  <path style="stroke: rgb(0, 0, 0);" d="M 68.837 71.786 L 37.15 155.883 L 53.064 203.681 L 78.715 71.839 L 68.837 71.786 Z" id="object-0"/>
  <path style="stroke: rgb(0, 0, 0);" d="M 82.923 71.933 L 100.978 131.72 L 131.916 73.683 L 82.923 71.933 Z" id="object-1"/>
  <path style="stroke: rgb(0, 0, 0);" d="M 139.595 74.133 L 152.902 74.685 L 172.838 135.85 L 151.584 192.296 L 139.595 74.133 Z" id="object-2"/>
  <path style="stroke: rgb(0, 0, 0);" d="M 81.249 85.341 L 56.605 204.267 L 98.151 138.367 L 81.249 85.341 Z" id="object-3"/>
  <path style="stroke: rgb(0, 0, 0);" d="M 131.569 85.977 L 147.576 185.817 L 108.592 135.186 L 131.569 85.977 Z" id="object-4"/>
  <path style="stroke: rgb(0, 0, 0);" d="M 104.831 141.112 L 56.928 207.9 L 63.787 218.71 C 63.787 218.71 133.591 217.411 133.777 217.597 C 133.963 217.783 145.466 198.261 145.466 198.261 L 145.281 191.024 L 104.831 141.112 Z" id="object-5"/>
</svg>